<svg width="74" height="74" viewBox="0 0 74 74" fill="none" xmlns="http://www.w3.org/2000/svg">
<path id="Subtract" fill-rule="evenodd" clip-rule="evenodd" d="M37 74C57.4345 74 74 57.4345 74 37C74 16.5655 57.4345 0 37 0C16.5655 0 0 16.5655 0 37C0 57.4345 16.5655 74 37 74ZM49.7 15C49.7 13.6193 48.5807 12.5 47.2 12.5C45.8193 12.5 44.7 13.6193 44.7 15V35.1733L38.9491 39.2718C37.8247 40.0731 37.5628 41.6342 38.3641 42.7586C39.1654 43.883 40.7265 44.1449 41.8509 43.3436L44.7 41.3131V51C44.7 52.3807 45.8193 53.5 47.2 53.5C48.5807 53.5 49.7 52.3807 49.7 51V37.7498L55.4509 33.6513C56.5753 32.8499 56.8372 31.2888 56.0359 30.1645C55.2346 29.0401 53.6735 28.7782 52.5491 29.5795L49.7 31.61V15ZM20 29.1154C18.6193 29.1154 17.5 30.2347 17.5 31.6154C17.5 32.9961 18.6193 34.1154 20 34.1154H30.5897L18.0654 49.4165C17.4535 50.1641 17.3271 51.1973 17.7407 52.0703C18.1543 52.9434 19.0339 53.5 20 53.5H35.8667C37.2474 53.5 38.3667 52.3807 38.3667 51C38.3667 49.6193 37.2474 48.5 35.8667 48.5H25.277L37.8012 33.1989C38.4131 32.4513 38.5396 31.4181 38.1259 30.545C37.7123 29.672 36.8327 29.1154 35.8667 29.1154H20Z" fill="black"/>
</svg>
